<svg width="1254" height="1080" viewBox="0 0 1254 1080" fill="none" xmlns="http://www.w3.org/2000/svg">
<path d="M946.07 539.655C946.07 706.233 811.032 841.271 644.455 841.271C477.877 841.271 342.839 706.233 342.839 539.655C342.839 373.078 477.877 238.04 644.455 238.04C811.032 238.04 946.07 373.078 946.07 539.655ZM373.906 539.655C373.906 689.075 495.035 810.204 644.455 810.204C793.875 810.204 915.003 689.075 915.003 539.655C915.003 390.235 793.875 269.107 644.455 269.107C495.035 269.107 373.906 390.235 373.906 539.655Z" fill="#FAFAFA"/>
<path d="M907.766 392.553C935.217 441.691 948.371 497.531 945.74 553.755C943.109 609.98 924.797 664.347 892.876 710.706C860.955 757.066 816.699 793.568 765.113 816.085C713.526 838.602 656.669 846.234 600.971 838.119L605.449 807.378C655.411 814.657 706.412 807.81 752.685 787.613C798.958 767.415 838.656 734.673 867.289 693.088C895.922 651.504 912.347 602.737 914.708 552.303C917.068 501.87 905.269 451.782 880.645 407.705L907.766 392.553Z" fill="#FF00F5" fill-opacity="0.14"/>
<path d="M889.585 363.81C929.535 419.351 949.416 486.824 945.964 555.153C942.511 623.482 915.931 688.608 870.585 739.839L847.322 719.248C887.997 673.294 911.84 614.877 914.937 553.585C918.034 492.294 900.201 431.771 864.365 381.951L889.585 363.81Z" fill="#FF00F5" fill-opacity="0.14"/>
<path d="M772.49 266.712C812.516 285.428 847.942 312.71 876.26 346.628C904.579 380.547 925.1 420.273 936.371 462.998C947.642 505.722 949.388 550.401 941.485 593.875C933.583 637.349 916.225 678.555 890.639 714.58L865.311 696.592C888.261 664.277 903.831 627.315 910.92 588.319C918.008 549.323 916.442 509.246 906.332 470.922C896.222 432.598 877.815 396.963 852.413 366.539C827.011 336.114 795.234 311.642 759.331 294.853L772.49 266.712Z" fill="#FF00F5" fill-opacity="0.14"/>
<path d="M644.733 238.318C704.387 238.318 762.701 256.007 812.301 289.149C861.902 322.291 900.56 369.397 923.389 424.51C946.217 479.623 952.19 540.267 940.553 598.775C928.915 657.283 900.189 711.025 858.007 753.207L836.04 731.24C873.877 693.403 899.644 645.196 910.083 592.714C920.522 540.233 915.165 485.835 894.687 436.398C874.21 386.962 839.533 344.708 795.042 314.98C750.55 285.252 698.242 269.384 644.733 269.384L644.733 238.318Z" fill="#FF00F5" fill-opacity="0.14"/>
<path d="M901.597 381.844C936.262 438.167 951.453 504.323 944.833 570.126C938.212 635.93 910.147 697.734 864.957 746.023C819.767 794.312 759.958 826.409 694.737 837.374C629.516 848.339 562.5 837.563 504.004 806.705L518.499 779.227C570.97 806.907 631.084 816.573 689.587 806.738C748.09 796.902 801.738 768.111 842.274 724.796C882.809 681.48 907.984 626.042 913.923 567.016C919.861 507.991 906.235 448.649 875.14 398.127L901.597 381.844Z" fill="#FF00F5" fill-opacity="0.14"/>
<path d="M824.24 297.552C872.179 333.055 908.513 381.976 928.648 438.129C948.783 494.282 951.814 555.145 937.359 613.021C922.903 670.897 891.61 723.187 847.437 763.278C803.263 803.369 748.193 829.46 689.191 838.253L684.612 807.526C737.537 799.639 786.935 776.235 826.558 740.273C866.182 704.311 894.252 657.408 907.218 605.493C920.185 553.578 917.466 498.984 899.405 448.615C881.344 398.246 848.752 354.363 805.751 322.517L824.24 297.552Z" fill="#FF00F5" fill-opacity="0.14"/>
<path d="M592.679 242.844C643.276 233.978 695.3 238.182 743.817 255.057C792.334 271.933 835.738 300.919 869.913 339.27C904.088 377.621 927.902 424.064 939.098 474.198C950.293 524.331 948.499 576.493 933.885 625.739L904.102 616.901C917.211 572.727 918.82 525.938 908.778 480.968C898.736 435.999 877.374 394.339 846.719 359.938C816.064 325.538 777.131 299.537 733.611 284.4C690.091 269.263 643.426 265.492 598.04 273.444L592.679 242.844Z" fill="#FF00F5" fill-opacity="0.14"/>
<path d="M1020.66 534.951C1020.66 740.036 854.408 906.29 649.323 906.29C444.238 906.29 277.984 740.036 277.984 534.951C277.984 329.866 444.238 163.612 649.323 163.612C854.408 163.612 1020.66 329.866 1020.66 534.951ZM316.232 534.951C316.232 718.912 465.362 868.042 649.323 868.042C833.284 868.042 982.414 718.912 982.414 534.951C982.414 350.99 833.284 201.86 649.323 201.86C465.362 201.86 316.232 350.99 316.232 534.951Z" fill="#FAFAFA"/>
<path d="M649.323 906.29C629.167 906.29 609.045 904.649 589.155 901.383L595.352 863.641C613.193 866.57 631.243 868.042 649.323 868.042L649.323 906.29Z" fill="#4700DE" fill-opacity="0.14"/>
<path d="M271.815 533.557C271.815 513.468 273.462 493.411 276.739 473.587L314.606 479.764C311.667 497.546 310.19 515.537 310.19 533.557L271.815 533.557Z" fill="#DFD7EF"/>
<path d="M702.482 167.972C722.458 171.105 742.144 175.848 761.344 182.155L749.297 218.349C732.074 212.692 714.416 208.438 696.498 205.628L702.482 167.972Z" fill="#DFD7EF"/>
<path d="M328.6 733.659C317.856 716.696 308.505 698.89 300.639 680.416L335.83 665.433C342.886 682.005 351.274 697.977 360.911 713.192L328.6 733.659Z" fill="#3600A9" fill-opacity="0.14"/>
<path d="M380.939 271.848C394.844 258.035 409.829 245.336 425.752 233.872L448.271 264.74C433.988 275.023 420.547 286.414 408.074 298.804L380.939 271.848Z" fill="#3600A9" fill-opacity="0.14"/>
<path d="M642.301 906.291C620.949 906.291 599.636 904.449 578.6 900.786L585.161 863.105C604.03 866.391 623.148 868.043 642.301 868.043L642.301 906.291Z" fill="#3600A9" fill-opacity="0.14"/>
<path d="M277.459 469.383C281.173 448.423 286.701 427.821 293.98 407.806L330.071 420.758C323.542 438.712 318.584 457.192 315.252 475.993L277.459 469.383Z" fill="#3600A9" fill-opacity="0.14"/>
<path d="M700.609 901.684C681.294 904.755 661.767 906.295 642.209 906.291L642.219 868.043C659.762 868.047 677.278 866.665 694.603 863.911L700.609 901.684Z" fill="#3600A9" fill-opacity="0.14"/>
<path d="M271.815 533.557C271.815 514.065 273.366 494.602 276.451 475.352L314.349 481.347C311.581 498.615 310.19 516.072 310.19 533.557L271.815 533.557Z" fill="#3600A9" fill-opacity="0.14"/>
<path d="M677.974 904.573C654.229 906.865 630.319 906.863 606.575 904.568L610.254 866.498C631.553 868.556 653.001 868.558 674.3 866.502L677.974 904.573Z" fill="#3600A9" fill-opacity="0.14"/>
<path d="M278.893 605.355C274.25 582.03 271.88 558.316 271.817 534.539L310.191 534.438C310.248 555.765 312.374 577.038 316.539 597.96L278.893 605.355Z" fill="#3600A9" fill-opacity="0.14"/>
<path d="M325.547 728.755C317.752 716.014 310.732 702.814 304.526 689.228L339.317 673.337C344.884 685.524 351.18 697.365 358.173 708.793L325.547 728.755Z" fill="#3600A9" fill-opacity="0.14"/>
<path d="M440.844 223.559C453.396 215.426 466.431 208.053 479.877 201.479L496.821 235.683C484.76 241.58 473.068 248.194 461.809 255.489L440.844 223.559Z" fill="#3600A9" fill-opacity="0.14"/>
<path d="M642.301 906.291C611.085 906.291 579.993 902.354 549.762 894.575L559.294 857.534C586.411 864.512 614.3 868.043 642.301 868.043L642.301 906.291Z" fill="#3600A9" fill-opacity="0.14"/>
<path d="M271.815 530.069C271.815 511.52 273.219 492.997 276.015 474.657L313.957 480.365C311.449 496.815 310.19 513.43 310.19 530.069L271.815 530.069Z" fill="#3600A9" fill-opacity="0.14"/>
<path d="M1108.05 534C1108.05 787.526 902.525 993.049 648.999 993.049C395.474 993.049 189.951 787.526 189.951 534C189.951 280.474 395.474 74.9513 648.999 74.9513C902.525 74.9513 1108.05 280.474 1108.05 534ZM237.233 534C237.233 761.413 421.587 945.767 648.999 945.767C876.412 945.767 1060.77 761.413 1060.77 534C1060.77 306.588 876.412 122.233 648.999 122.233C421.587 122.233 237.233 306.588 237.233 534Z" fill="#FAFAFA"/>
<path d="M324.403 858.597C311.148 845.341 298.717 831.286 287.18 816.511L324.447 787.412C334.796 800.666 345.946 813.273 357.836 825.163L324.403 858.597Z" fill="#9C5401" fill-opacity="0.14"/>
<path d="M886.732 926.694C871.332 936.017 855.398 944.426 839.01 951.878L819.439 908.836C834.139 902.152 848.432 894.609 862.246 886.247L886.732 926.694Z" fill="#9C5401" fill-opacity="0.14"/>
<path d="M775.298 975.876C757.986 980.812 740.398 984.726 722.627 987.597L715.087 940.92C731.028 938.345 746.804 934.834 762.332 930.406L775.298 975.876Z" fill="#9C5401" fill-opacity="0.14"/>
<path d="M543.74 87.1821C561.038 83.1071 578.558 80.0401 596.212 77.9965L601.649 124.965C585.814 126.798 570.098 129.549 554.582 133.204L543.74 87.1821Z" fill="#9C5401" fill-opacity="0.14"/>
<path d="M705.271 78.4133C729.274 81.3781 753.005 86.2351 776.243 92.939L763.137 138.368C742.293 132.355 721.006 127.998 699.475 125.339L705.271 78.4133Z" fill="#9C5401" fill-opacity="0.14"/>
<path d="M648.999 74.9513C674.804 74.9513 700.563 77.1272 726.002 81.4558L718.071 128.068C695.252 124.185 672.146 122.233 648.999 122.233L648.999 74.9513Z" fill="#9C5401" fill-opacity="0.14"/>
<path d="M440.56 125.003C453.703 118.304 467.162 112.244 480.889 106.841L498.204 150.839C485.891 155.685 473.819 161.121 462.03 167.129L440.56 125.003Z" fill="#9C5401" fill-opacity="0.14"/>
<path d="M1058.35 534.378C1058.35 761.653 874.103 945.896 646.828 945.896C419.553 945.896 235.311 761.653 235.311 534.378C235.311 307.104 419.553 122.861 646.828 122.861C874.103 122.861 1058.35 307.104 1058.35 534.378ZM277.697 534.378C277.697 738.244 442.963 903.51 646.828 903.51C850.694 903.51 1015.96 738.244 1015.96 534.378C1015.96 330.513 850.694 165.247 646.828 165.247C442.963 165.247 277.697 330.513 277.697 534.378Z" fill="#FAFAFA"/>
<path d="M985.96 301.278C995.944 315.802 1004.98 330.952 1013.02 346.636L975.306 365.973C968.093 351.905 959.985 338.315 951.03 325.287L985.96 301.278Z" fill="#00D1FF" fill-opacity="0.14"/>
<path d="M240.882 473.465C243.524 456.99 247.166 440.69 251.788 424.657L292.516 436.397C288.37 450.779 285.103 465.399 282.733 480.178L240.882 473.465Z" fill="#00D1FF" fill-opacity="0.14"/>
<path d="M675.427 945.306C658.781 946.45 642.08 946.581 625.417 945.697L627.661 903.37C642.608 904.163 657.588 904.045 672.52 903.019L675.427 945.306Z" fill="#00D1FF" fill-opacity="0.14"/>
<path d="M542.877 932.83C526.736 928.6 510.867 923.391 495.359 917.234L510.999 877.839C524.91 883.362 539.145 888.034 553.623 891.828L542.877 932.83Z" fill="#00D1FF" fill-opacity="0.14"/>
<path d="M264.496 689.895C258.362 674.377 253.179 658.5 248.973 642.353L289.991 631.67C293.763 646.154 298.413 660.395 303.915 674.315L264.496 689.895Z" fill="#00D1FF" fill-opacity="0.14"/>
<path d="M520.968 143.08C536.85 137.962 553.028 133.814 569.413 130.659L577.426 172.281C562.728 175.111 548.216 178.831 533.971 183.423L520.968 143.08Z" fill="#00D1FF" fill-opacity="0.14"/>
<path d="M356.219 243.77C368.018 231.971 380.523 220.901 393.666 210.621L419.781 244.007C407.992 253.228 396.774 263.158 386.191 273.742L356.219 243.77Z" fill="#00D1FF" fill-opacity="0.14"/>
<path d="M615.316 124.477C632.008 123.179 648.763 122.902 665.488 123.646L663.609 165.909C648.603 165.242 633.57 165.491 618.595 166.655L615.316 124.477Z" fill="#00D1FF" fill-opacity="0.14"/>
<path d="M942.071 821.865C930.233 833.703 917.683 844.808 904.492 855.117L879.11 822.641C890.98 813.364 902.273 803.372 912.925 792.719L942.071 821.865Z" fill="#00D1FF" fill-opacity="0.14"/>
<path d="M240.882 469.587C243.524 453.111 247.166 436.812 251.788 420.779L292.516 432.518C288.37 446.9 285.103 461.521 282.733 476.299L240.882 469.587Z" fill="#00D1FF" fill-opacity="0.14"/>
<path d="M264.496 686.016C258.362 670.498 253.179 654.622 248.973 638.474L289.991 627.791C293.763 642.276 298.413 656.517 303.915 670.437L264.496 686.016Z" fill="#00D1FF" fill-opacity="0.14"/>
<path d="M356.219 243.77C368.018 231.971 380.523 220.901 393.666 210.621L419.781 244.007C407.992 253.228 396.774 263.158 386.191 273.742L356.219 243.77Z" fill="#00D1FF" fill-opacity="0.14"/>
<path d="M938.193 243.77C950.2 255.778 961.453 268.517 971.887 281.915L939.366 307.24C929.978 295.184 919.852 283.721 909.047 272.916L938.193 243.77Z" fill="#00D1FF" fill-opacity="0.14"/>
<path d="M900.298 859.243C887.097 869.539 873.28 879.021 858.924 887.634L837.717 852.289C850.636 844.539 863.069 836.007 874.948 826.742L900.298 859.243Z" fill="#00D1FF" fill-opacity="0.14"/>
<path d="M626.889 945.773C610.168 944.946 593.513 943.1 577.016 940.244L584.046 899.63C598.891 902.199 613.878 903.861 628.924 904.604L626.889 945.773Z" fill="#00D1FF" fill-opacity="0.14"/>
<path d="M240.882 465.708C243.524 449.232 247.166 432.933 251.788 416.9L292.516 428.639C288.37 443.021 285.103 457.642 282.733 472.42L240.882 465.708Z" fill="#00D1FF" fill-opacity="0.14"/>
<path d="M264.496 682.137C258.362 666.619 253.179 650.743 248.973 634.595L289.991 623.912C293.763 638.397 298.413 652.638 303.915 666.557L264.496 682.137Z" fill="#00D1FF" fill-opacity="0.14"/>
<path d="M356.219 239.891C368.018 228.092 380.523 217.022 393.666 206.742L419.781 240.128C407.992 249.349 396.774 259.279 386.191 269.863L356.219 239.891Z" fill="#00D1FF" fill-opacity="0.14"/>
<path d="M591.737 126.995C608.563 124.706 625.515 123.461 642.496 123.266L642.967 164.482C627.688 164.657 612.434 165.777 597.293 167.837L591.737 126.995Z" fill="#00D1FF" fill-opacity="0.14"/>
<path d="M906.21 854.543C893.2 865.08 879.56 874.814 865.364 883.689L843.513 848.739C856.287 840.753 868.561 831.995 880.268 822.513L906.21 854.543Z" fill="#00D1FF" fill-opacity="0.14"/>
<path d="M240.882 465.708C243.524 449.232 247.166 432.933 251.788 416.9L292.516 428.639C288.37 443.021 285.103 457.642 282.733 472.42L240.882 465.708Z" fill="#00D1FF" fill-opacity="0.14"/>
<path d="M264.496 682.137C258.362 666.619 253.179 650.743 248.973 634.595L289.991 623.912C293.763 638.397 298.413 652.638 303.915 666.557L264.496 682.137Z" fill="#00D1FF" fill-opacity="0.14"/>
<path d="M356.219 239.891C368.018 228.092 380.523 217.022 393.666 206.742L419.781 240.128C407.992 249.349 396.774 259.279 386.191 269.863L356.219 239.891Z" fill="#00D1FF" fill-opacity="0.14"/>
<path d="M956.612 263.438C971.295 280.182 984.595 298.09 996.38 316.987L960.847 339.147C950.262 322.174 938.315 306.088 925.127 291.048L956.612 263.438Z" fill="#00D1FF" fill-opacity="0.14"/>
<path d="M379.667 847.438C366.946 836.554 354.901 824.904 343.599 812.552L374.009 784.727C384.179 795.842 395.017 806.325 406.464 816.12L379.667 847.438Z" fill="#00D1FF" fill-opacity="0.14"/>
<path d="M237.003 465.708C239.645 449.232 243.287 432.933 247.909 416.9L288.637 428.639C284.491 443.021 281.224 457.642 278.854 472.42L237.003 465.708Z" fill="#00D1FF" fill-opacity="0.14"/>
<path d="M260.617 682.137C254.483 666.619 249.3 650.743 245.094 634.595L286.112 623.912C289.885 638.397 294.534 652.638 300.036 666.557L260.617 682.137Z" fill="#00D1FF" fill-opacity="0.14"/>
<path d="M352.34 239.891C364.139 228.092 376.645 217.022 389.787 206.742L415.902 240.128C404.113 249.349 392.895 259.279 382.312 269.863L352.34 239.891Z" fill="#00D1FF" fill-opacity="0.14"/>
<path d="M868.246 187.643C881.646 196.176 894.54 205.478 906.865 215.502L880.857 247.479C869.767 238.459 858.164 230.089 846.106 222.411L868.246 187.643Z" fill="#00D1FF" fill-opacity="0.14"/>
<path d="M614.91 940.803C633.717 942.462 652.616 942.826 671.473 941.89L669.43 900.723C652.462 901.564 635.456 901.237 618.533 899.744L614.91 940.803Z" fill="#00D1FF" fill-opacity="0.14"/>
<path d="M237.003 465.708C239.645 449.232 243.287 432.933 247.909 416.9L288.637 428.639C284.491 443.021 281.224 457.642 278.854 472.42L237.003 465.708Z" fill="#00D1FF" fill-opacity="0.14"/>
<path d="M260.617 682.137C254.483 666.619 249.3 650.743 245.094 634.595L286.112 623.912C289.885 638.397 294.534 652.638 300.036 666.557L260.617 682.137Z" fill="#00D1FF" fill-opacity="0.14"/>
<path d="M352.34 239.891C364.139 228.092 376.645 217.022 389.787 206.742L415.902 240.128C404.113 249.349 392.895 259.279 382.312 269.863L352.34 239.891Z" fill="#00D1FF" fill-opacity="0.14"/>
<path d="M510.808 146.502C525.796 141.236 541.076 136.843 556.572 133.344L565.65 173.55C551.706 176.699 537.956 180.652 524.469 185.39L510.808 146.502Z" fill="#00D1FF" fill-opacity="0.14"/>
<path d="M996.277 752.693C1006.14 736.898 1014.92 720.452 1022.55 703.469L984.955 686.57C978.085 701.853 970.187 716.651 961.313 730.864L996.277 752.693Z" fill="#00D1FF" fill-opacity="0.14"/>
<path d="M600.783 943.647C619.284 945.748 637.907 946.59 656.522 946.169L655.589 904.961C638.838 905.34 622.081 904.582 605.432 902.692L600.783 943.647Z" fill="#00D1FF" fill-opacity="0.14"/>
<path d="M240.882 469.587C243.524 453.111 247.166 436.812 251.788 420.779L292.516 432.518C288.37 446.9 285.103 461.521 282.733 476.299L240.882 469.587Z" fill="#00D1FF" fill-opacity="0.14"/>
<path d="M264.496 686.016C258.362 670.498 253.179 654.622 248.973 638.474L289.991 627.791C293.763 642.276 298.413 656.517 303.915 670.437L264.496 686.016Z" fill="#00D1FF" fill-opacity="0.14"/>
<path d="M356.219 243.77C368.018 231.971 380.523 220.901 393.666 210.621L419.781 244.007C407.992 253.228 396.774 263.158 386.191 273.742L356.219 243.77Z" fill="#00D1FF" fill-opacity="0.14"/>
<path d="M986.857 538.463C986.857 724 836.45 874.407 650.913 874.407C465.376 874.407 314.968 724 314.968 538.463C314.968 352.926 465.376 202.518 650.913 202.518C836.45 202.518 986.857 352.926 986.857 538.463ZM349.571 538.463C349.571 704.889 484.486 839.805 650.913 839.805C817.339 839.805 952.255 704.889 952.255 538.463C952.255 372.036 817.339 237.121 650.913 237.121C484.486 237.121 349.571 372.036 349.571 538.463Z" fill="#FAFAFA"/>
<path d="M367.83 357.568C384.208 331.938 403.991 308.651 426.636 288.346L449.736 314.108C429.424 332.322 411.679 353.21 396.988 376.2L367.83 357.568Z" fill="#FB1313" fill-opacity="0.14"/>
<path d="M349.612 389.881C360.375 368.056 373.477 347.464 388.688 328.47L415.698 350.099C402.053 367.137 390.3 385.608 380.646 405.185L349.612 389.881Z" fill="#FB1313" fill-opacity="0.14"/>
<path d="M413.364 300.914C439.285 274.994 469.273 253.49 502.14 237.256L517.463 268.281C487.982 282.842 461.082 302.131 437.832 325.382L413.364 300.914Z" fill="#FB1313" fill-opacity="0.14"/>
<path d="M314.968 538.463C314.968 519.578 316.561 500.727 319.728 482.11L353.84 487.914C350.999 504.614 349.571 521.523 349.571 538.463L314.968 538.463Z" fill="#FB1313" fill-opacity="0.14"/>
<path d="M374.06 348.17C391.525 322.761 412.404 299.878 436.11 280.164L458.235 306.768C436.97 324.452 418.242 344.978 402.576 367.77L374.06 348.17Z" fill="#FB1313" fill-opacity="0.14"/>
<g clip-path="url(#clip0_21_2013)">
<path d="M544.962 419.611V415.456H553.271V419.611H559.496V454.904H561.567V417.54H555.342V413.385H542.892V417.54H536.667V454.904H538.737V419.611H544.962Z" fill="#FAA6A6"/>
<path d="M559.497 454.904H538.737V456.975H559.497V454.904Z" fill="#FAA6A6"/>
<path d="M557.412 444.524H540.808V450.749H557.412V444.524Z" fill="#FAA6A6"/>
<path d="M557.412 438.299H540.808V440.37H557.412V438.299Z" fill="#FAA6A6"/>
<path d="M557.412 432.061H540.808V434.145H557.412V432.061Z" fill="#FAA6A6"/>
<path d="M557.412 425.836H540.808V427.92H557.412V425.836Z" fill="#FAA6A6"/>
</g>
<g clip-path="url(#clip1_21_2013)">
<path d="M805.037 472.398H798.118V479.317H805.037V472.398Z" fill="#FC57F8"/>
<path d="M805.036 493.199H791.153V500.163H805.036V493.199Z" fill="#FC57F8"/>
<path d="M798.117 479.317H791.153V486.281H798.117V479.317Z" fill="#FC57F8"/>
<path d="M798.117 465.48H784.235V472.398H798.117V465.48Z" fill="#FC57F8"/>
<path d="M791.153 486.28H784.235V493.199H791.153V486.28Z" fill="#FC57F8"/>
<path d="M777.271 500.163H770.353V507.081H777.271V500.163Z" fill="#FC57F8"/>
<path d="M777.271 520.964H763.435V527.882H777.271V520.964Z" fill="#FC57F8"/>
<path d="M770.353 507.082H763.435V514H770.353V507.082Z" fill="#FC57F8"/>
<path d="M770.352 493.199H756.47V500.163H770.352V493.199Z" fill="#FC57F8"/>
<path d="M763.434 514H756.47V520.964H763.434V514Z" fill="#FC57F8"/>
<path d="M742.633 534.801H735.669V576.448H742.633V534.801Z" fill="#FC57F8"/>
<path d="M735.669 527.882H728.751V534.801H735.669V527.882Z" fill="#FC57F8"/>
<path d="M735.669 479.317H728.751V507.082H735.669V479.317Z" fill="#FC57F8"/>
<path d="M728.751 548.683H721.787V604.167H714.869V576.448H707.95V604.167H700.986V548.683H694.068V576.448H687.104V583.367H694.068V611.131H728.751V583.367H735.67V576.448H728.751V548.683Z" fill="#FC57F8"/>
<path d="M728.752 520.964H721.788V527.882H728.752V520.964Z" fill="#FC57F8"/>
<path d="M728.752 507.082H721.788V514H728.752V507.082Z" fill="#FC57F8"/>
<path d="M728.752 472.398H721.788V479.317H728.752V472.398Z" fill="#FC57F8"/>
<path d="M721.786 514H700.985V520.964H721.786V514Z" fill="#FC57F8"/>
<path d="M721.786 465.48H700.985V472.398H721.786V465.48Z" fill="#FC57F8"/>
<path d="M700.985 520.964H694.067V527.882H700.985V520.964Z" fill="#FC57F8"/>
<path d="M700.985 507.082H694.067V514H700.985V507.082Z" fill="#FC57F8"/>
<path d="M700.985 472.398H694.067V479.317H700.985V472.398Z" fill="#FC57F8"/>
<path d="M694.068 527.882H687.104V534.801H694.068V527.882Z" fill="#FC57F8"/>
<path d="M694.068 479.317H687.104V507.082H694.068V479.317Z" fill="#FC57F8"/>
<path d="M687.104 534.801H680.186V576.448H687.104V534.801Z" fill="#FC57F8"/>
</g>
<path d="M644.874 238.001L641.079 532.772" stroke="black" stroke-opacity="0.3" stroke-width="1.0599" stroke-dasharray="2.12 2.12"/>
<path d="M261.535 394.249L642.142 538.837" stroke="black" stroke-opacity="0.3" stroke-width="1.06315" stroke-dasharray="2.13 2.13"/>
<path d="M596.427 934.743L641.339 532.458" stroke="black" stroke-opacity="0.3" stroke-width="1.06006" stroke-dasharray="2.12 2.12"/>
<path d="M641.079 547.342L643.065 841.829" stroke="black" stroke-opacity="0.3" stroke-width="1.05887" stroke-dasharray="2.12 2.12"/>
<path d="M349.998 390.114L642.143 534.585" stroke="black" stroke-opacity="0.3" stroke-width="1.06315" stroke-dasharray="2.13 2.13"/>
<path d="M502.87 237.966L642.142 533.521" stroke="black" stroke-opacity="0.3" stroke-width="1.06315" stroke-dasharray="2.13 2.13"/>
<path d="M519.089 581.76H515.402V589.133H519.089V581.76Z" fill="#0202FE"/>
<path d="M515.401 589.133H511.69V592.844H515.401V589.133Z" fill="#0202FE"/>
<path d="M515.401 578.049H508.004V581.76H515.401V578.049Z" fill="#0202FE"/>
<path d="M511.691 592.844H504.318V596.53H511.691V592.844Z" fill="#0202FE"/>
<path d="M508.005 574.363H504.318V578.049H508.005V574.363Z" fill="#0202FE"/>
<path d="M504.319 585.447H500.608V592.844H504.319V585.447Z" fill="#0202FE"/>
<path d="M500.608 570.652H496.921V574.363H504.319V552.171H500.608V570.652Z" fill="#0202FE"/>
<path d="M500.608 581.76H496.921V585.447H500.608V581.76Z" fill="#0202FE"/>
<path d="M500.608 541.088H496.921V552.171H500.608V541.088Z" fill="#0202FE"/>
<path d="M493.235 574.363V578.049H474.754V581.76H496.921V574.363H493.235Z" fill="#0202FE"/>
<path d="M496.921 537.401H493.235V541.088H496.921V537.401Z" fill="#0202FE"/>
<path d="M493.234 533.715H489.523V537.401H493.234V533.715Z" fill="#0202FE"/>
<path d="M489.523 530.004H485.836V533.715H489.523V530.004Z" fill="#0202FE"/>
<path d="M485.837 526.318H482.126V530.004H485.837V526.318Z" fill="#0202FE"/>
<path d="M482.127 563.279H478.44V566.966H482.127V563.279Z" fill="#0202FE"/>
<path d="M474.753 574.363H463.646V578.049H474.753V574.363Z" fill="#0202FE"/>
<path d="M474.754 563.279H467.356V566.966H474.754V563.279Z" fill="#0202FE"/>
<path d="M467.356 559.569H463.646V563.279H467.356V559.569Z" fill="#0202FE"/>
<path d="M463.645 570.652H459.958V574.363H463.645V570.652Z" fill="#0202FE"/>
<path d="M463.645 555.882H459.958V559.568H463.645V555.882Z" fill="#0202FE"/>
<path d="M482.127 522.607H456.273V526.317H482.127V522.607Z" fill="#0202FE"/>
<path d="M459.959 566.966H456.273V570.652H459.959V566.966Z" fill="#0202FE"/>
<path d="M459.959 552.171H456.273V555.882H459.959V552.171Z" fill="#0202FE"/>
<path d="M456.273 563.279H452.562V566.966H456.273V563.279Z" fill="#0202FE"/>
<path d="M456.273 544.799H452.562V552.172H456.273V544.799Z" fill="#0202FE"/>
<path d="M456.273 526.318H452.562V530.004H456.273V526.318Z" fill="#0202FE"/>
<path d="M452.561 559.569H448.875V563.279H452.561V559.569Z" fill="#0202FE"/>
<path d="M452.561 530.004H448.875V533.715H452.561V530.004Z" fill="#0202FE"/>
<path d="M448.876 533.715H445.189V559.568H448.876V533.715Z" fill="#0202FE"/>
<g clip-path="url(#clip2_21_2013)">
<path d="M592.332 677.203H588.367V689.046H592.332V677.203Z" fill="#00E0FF"/>
<path d="M588.367 689.046H584.428V692.985H588.367V689.046Z" fill="#00E0FF"/>
<path d="M588.367 673.264H584.428V677.203H588.367V673.264Z" fill="#00E0FF"/>
<path d="M584.428 704.854H580.489V708.793H584.428V704.854Z" fill="#00E0FF"/>
<path d="M584.428 681.142H580.489V685.107H584.428V681.142Z" fill="#00E0FF"/>
<path d="M584.426 669.299H572.583V673.264H584.426V669.299Z" fill="#00E0FF"/>
<path d="M580.487 708.793H576.522V712.732H580.487V708.793Z" fill="#00E0FF"/>
<path d="M580.487 700.889H576.522V704.854H580.487V700.889Z" fill="#00E0FF"/>
<path d="M572.585 692.985V696.95H568.62V700.889H576.523V696.95H584.427V692.985H572.585Z" fill="#00E0FF"/>
<path d="M572.583 677.203V689.046H580.487V685.107H576.522V681.142H580.487V677.203H572.583Z" fill="#00E0FF"/>
<path d="M576.523 712.732H568.62V716.697H576.523V712.732Z" fill="#00E0FF"/>
<path d="M572.585 665.361H568.62V669.3H572.585V665.361Z" fill="#00E0FF"/>
<path d="M568.619 700.889H560.741V704.854H568.619V700.889Z" fill="#00E0FF"/>
<path d="M568.618 661.396H556.775V665.361H568.618V661.396Z" fill="#00E0FF"/>
<path d="M568.619 716.697H529.152V720.636H568.619V716.697Z" fill="#00E0FF"/>
<path d="M533.091 669.299V673.264H529.152V677.203H533.091V681.142H564.68V677.203H568.619V673.264H564.68V669.299H533.091Z" fill="#00E0FF"/>
<path d="M564.68 641.649H560.741V649.553H564.68V641.649Z" fill="#00E0FF"/>
<path d="M560.742 637.71H552.838V641.649H560.742V637.71Z" fill="#00E0FF"/>
<path d="M560.74 649.553H556.775V653.517H560.74V649.553Z" fill="#00E0FF"/>
<path d="M552.837 641.649H548.873V645.614H552.837V641.649Z" fill="#00E0FF"/>
<path d="M552.837 657.457H548.873V665.361H552.837V657.457Z" fill="#00E0FF"/>
<path d="M548.872 637.71H540.994V641.649H548.872V637.71Z" fill="#00E0FF"/>
<path d="M548.872 653.518H544.933V657.457H548.872V653.518Z" fill="#00E0FF"/>
<path d="M544.933 649.553H540.994V653.517H544.933V649.553Z" fill="#00E0FF"/>
<path d="M560.741 704.854H537.03V708.793H560.741V704.854Z" fill="#00E0FF"/>
<path d="M540.995 641.649H537.03V649.553H540.995V641.649Z" fill="#00E0FF"/>
<path d="M544.934 661.396H529.152V665.361H544.934V661.396Z" fill="#00E0FF"/>
<path d="M537.03 700.889H529.152V704.854H537.03V700.889Z" fill="#00E0FF"/>
<path d="M529.151 712.732H521.248V716.697H529.151V712.732Z" fill="#00E0FF"/>
<path d="M529.151 692.985H525.187V696.95H521.248V700.889H529.151V692.985Z" fill="#00E0FF"/>
<path d="M529.151 665.361H525.187V669.3H529.151V665.361Z" fill="#00E0FF"/>
<path d="M525.187 669.299H521.248V692.985H525.187V669.299Z" fill="#00E0FF"/>
<path d="M521.248 708.793H517.283V712.732H521.248V708.793Z" fill="#00E0FF"/>
<path d="M521.248 700.889H517.283V704.854H521.248V700.889Z" fill="#00E0FF"/>
<path d="M517.283 704.854H513.344V708.793H517.283V704.854Z" fill="#00E0FF"/>
</g>
<g clip-path="url(#clip3_21_2013)">
<path d="M514.912 379.361H513.144V375.826H511.365V377.594H509.598V375.826H506.051V374.047H502.504V375.826H504.283V377.594H506.051V386.455H504.283V388.222H502.504V390.001H493.655V388.222H491.876V386.455H490.109V377.594H491.876V375.826H493.655V374.047H490.109V375.826H486.562V377.594H484.795V375.826H483.015V379.361H481.248V382.908H479.48V391.769H481.248V395.315H483.015V398.85H484.795V395.315H486.562V393.536H488.33V391.769H507.83V393.536H509.598V395.315H511.365V398.85H513.144V395.315H514.912V391.769H516.691V382.908H514.912V379.361Z" fill="#FAA6A6"/>
<path d="M511.365 398.85H509.598V400.629H511.365V398.85Z" fill="#FAA6A6"/>
<path d="M511.365 374.047H509.598V375.826H511.365V374.047Z" fill="#FAA6A6"/>
<path d="M509.597 400.629H506.051V402.397H509.597V400.629Z" fill="#FAA6A6"/>
<path d="M509.597 372.28H506.051V374.047H509.597V372.28Z" fill="#FAA6A6"/>
<path d="M506.051 402.397H502.504V404.176H506.051V402.397Z" fill="#FAA6A6"/>
<path d="M506.051 370.501H502.504V372.28H506.051V370.501Z" fill="#FAA6A6"/>
<path d="M502.504 382.908H500.737V386.454H502.504V382.908Z" fill="#FAA6A6"/>
<path d="M502.504 377.594H500.737V381.14H502.504V377.594Z" fill="#FAA6A6"/>
<path d="M502.504 372.28H493.655V374.047H502.504V372.28Z" fill="#FAA6A6"/>
<path d="M502.504 404.176H493.655V405.943H502.504V404.176Z" fill="#FAA6A6"/>
<path d="M500.737 386.454H495.423V388.222H500.737V386.454Z" fill="#FAA6A6"/>
<path d="M500.737 381.141H495.423V382.908H500.737V381.141Z" fill="#FAA6A6"/>
<path d="M500.737 375.826H495.423V377.594H500.737V375.826Z" fill="#FAA6A6"/>
<path d="M502.504 368.733H493.655V370.501H502.504V368.733Z" fill="#FAA6A6"/>
<path d="M495.422 382.908H493.655V386.454H495.422V382.908Z" fill="#FAA6A6"/>
<path d="M495.422 377.594H493.655V381.14H495.422V377.594Z" fill="#FAA6A6"/>
<path d="M493.655 402.397H490.109V404.176H493.655V402.397Z" fill="#FAA6A6"/>
<path d="M493.655 370.501H490.109V372.28H493.655V370.501Z" fill="#FAA6A6"/>
<path d="M490.109 400.629H486.562V402.397H490.109V400.629Z" fill="#FAA6A6"/>
<path d="M490.109 372.28H486.562V374.047H490.109V372.28Z" fill="#FAA6A6"/>
<path d="M486.562 398.85H484.794V400.629H486.562V398.85Z" fill="#FAA6A6"/>
<path d="M486.562 374.047H484.794V375.826H486.562V374.047Z" fill="#FAA6A6"/>
</g>
<defs>
<clipPath id="clip0_21_2013">
<rect width="43.5891" height="43.5891" fill="white" transform="translate(527.322 413.385)"/>
</clipPath>
<clipPath id="clip1_21_2013">
<rect width="145.652" height="145.652" fill="white" transform="translate(669.784 465.48)"/>
</clipPath>
<clipPath id="clip2_21_2013">
<rect width="82.9257" height="82.9257" fill="white" transform="translate(511.375 637.71)"/>
</clipPath>
<clipPath id="clip3_21_2013">
<rect width="37.2102" height="37.2102" fill="white" transform="translate(479.48 368.733)"/>
</clipPath>
</defs>
</svg>
